<svg width="60" height="60" viewBox="0 0 60 60" fill="none" xmlns="http://www.w3.org/2000/svg">
<g id="_x33_0" clip-path="url(#clip0_27_150)">
<g id="Group">
<path id="Vector" d="M11.25 15.9375C11.7678 15.9375 12.1875 15.5178 12.1875 15C12.1875 14.4822 11.7678 14.0625 11.25 14.0625C10.7322 14.0625 10.3125 14.4822 10.3125 15C10.3125 15.5178 10.7322 15.9375 11.25 15.9375Z" fill="#51ABD3"/>
<path id="Vector_2" d="M18.75 15.9375C19.2678 15.9375 19.6875 15.5178 19.6875 15C19.6875 14.4822 19.2678 14.0625 18.75 14.0625C18.2322 14.0625 17.8125 14.4822 17.8125 15C17.8125 15.5178 18.2322 15.9375 18.75 15.9375Z" fill="#51ABD3"/>
<path id="Vector_3" d="M18.5522 21.2419L18.6506 21.0441L16.9734 20.205L16.875 20.4038C16.5178 21.1181 15.7997 21.5625 15 21.5625C14.2003 21.5625 13.4822 21.1181 13.125 20.4038L13.0266 20.2059L11.3494 21.045L11.4478 21.2419C12.1247 22.5966 13.4859 23.4375 15 23.4375C16.5141 23.4375 17.8753 22.5966 18.5522 21.2419Z" fill="#51ABD3"/>
<path id="Vector_4" d="M13.2164 8.85658L14.8927 8.01846L16.7667 11.7666L15.0904 12.6047L13.2164 8.85658Z" fill="#51ABD3"/>
<path id="Vector_5" d="M16.9645 8.85751L18.6408 8.01939L20.5148 11.7675L18.8386 12.6056L16.9645 8.85751Z" fill="#51ABD3"/>
<path id="Vector_6" d="M57.1875 42.1875V41.25C57.1875 37.8769 55.1934 34.9688 52.3275 33.6197C54.1219 32.4469 55.3125 30.4237 55.3125 28.125C55.3125 24.5063 52.3678 21.5625 48.75 21.5625C45.1322 21.5625 42.1875 24.5063 42.1875 28.125C42.1875 30.4237 43.3781 32.4469 45.1725 33.6197C43.4841 34.4147 42.1022 35.7478 41.25 37.4025C40.3978 35.7478 39.015 34.4147 37.3275 33.6197C39.1219 32.4469 40.3125 30.4237 40.3125 28.125C40.3125 24.5063 37.3678 21.5625 33.75 21.5625C30.1322 21.5625 27.1875 24.5063 27.1875 28.125C27.1875 30.42 28.3744 32.4403 30.1641 33.6141C29.4412 33.9534 28.7709 34.3988 28.1663 34.9359C26.6963 31.2366 23.5228 28.3387 19.5187 27.3375L19.1991 26.0578C19.6912 25.7738 20.1497 25.4419 20.5725 25.0688L24.7509 23.6756C27.33 22.815 29.0625 20.4113 29.0625 17.6944C29.0625 17.0559 28.965 16.4231 28.7747 15.8138L26.5106 8.56781C25.0847 4.00406 20.9147 0.9375 16.1334 0.9375C13.98 0.9375 11.8941 1.56844 10.1016 2.76375L10.0172 2.82C7.5 2.93812 5.27344 4.57406 4.41844 6.96656L1.29844 15.7041C1.05844 16.3734 0.9375 17.0728 0.9375 17.7834C0.9375 20.4487 2.63625 22.8047 5.16375 23.6475L9.4275 25.0688C9.85031 25.4419 10.3097 25.7747 10.8009 26.0578L10.4813 27.3375C4.91531 28.7297 0.9375 33.7763 0.9375 39.5606V50.625C0.9375 52.5619 2.10656 54.2288 3.82313 54.9403L2.44875 59.0625H27.5503L26.1759 54.9403C27.8934 54.2288 29.0625 52.5619 29.0625 50.625V47.8125H57.1875C58.2216 47.8125 59.0625 46.9716 59.0625 45.9375V44.0625C59.0625 43.0284 58.2216 42.1875 57.1875 42.1875ZM48.75 23.4375C51.0131 23.4375 52.9069 25.0509 53.3428 27.1875H44.1572C44.5931 25.0509 46.4869 23.4375 48.75 23.4375ZM44.1572 29.0625H53.3428C52.9069 31.1991 51.0141 32.8125 48.75 32.8125C46.4859 32.8125 44.5931 31.1991 44.1572 29.0625ZM48.75 34.6875C52.3678 34.6875 55.3125 37.6322 55.3125 41.25V42.1875H42.1875V41.25C42.1875 37.6322 45.1322 34.6875 48.75 34.6875ZM33.75 23.4375C36.0131 23.4375 37.9069 25.0509 38.3428 27.1875H29.1572C29.5931 25.0509 31.4869 23.4375 33.75 23.4375ZM29.1572 29.0625H38.3428C37.9069 31.1991 36.0141 32.8125 33.75 32.8125C31.4859 32.8125 29.5931 31.1991 29.1572 29.0625ZM33.75 34.6875C37.3678 34.6875 40.3125 37.6322 40.3125 41.25V42.1875H29.0625V39.5606C29.0625 38.6775 28.9594 37.815 28.7822 36.9769C30.0328 35.5228 31.8169 34.6875 33.75 34.6875ZM8.4375 18.75V14.0625C8.4375 11.9944 10.1194 10.3125 12.1875 10.3125V8.4375C9.08531 8.4375 6.5625 10.9603 6.5625 14.0625V18.75C6.5625 20.0672 6.87469 21.3094 7.41469 22.4212L5.75719 21.8681C3.99562 21.2812 2.8125 19.6397 2.8125 17.7834C2.8125 17.2884 2.89687 16.8019 3.06375 16.3359L6.18375 7.5975C6.80625 5.85656 8.46469 4.6875 10.3125 4.6875H10.5966L11.1422 4.32375C12.6253 3.33562 14.3512 2.8125 16.1334 2.8125C20.0906 2.8125 23.5406 5.35031 24.7219 9.12656L26.9859 16.3725C27.12 16.8009 27.1875 17.2453 27.1875 17.6944C27.1875 19.6041 25.9697 21.2925 24.1584 21.8963L22.5862 22.4203C23.1253 21.3094 23.4375 20.0662 23.4375 18.75V12.1875H21.5625V18.75C21.5625 22.3687 18.6178 25.3125 15 25.3125C11.3822 25.3125 8.4375 22.3687 8.4375 18.75ZM15 27.1875C15.855 27.1875 16.68 27.0572 17.4581 26.82L17.8125 28.2394V29.3841C17.8125 29.9091 17.7675 30.4256 17.7009 30.9375H12.2991C12.2325 30.4256 12.1875 29.9091 12.1875 29.3841V28.2394L12.5419 26.82C13.32 27.0572 14.145 27.1875 15 27.1875ZM17.3016 32.8125C16.8366 34.3603 16.0641 35.8031 15 37.0556C13.9359 35.8031 13.1634 34.3603 12.6984 32.8125H17.3016ZM10.3125 29.34V29.3841C10.3125 33.0544 11.7413 36.5044 14.3372 39.1003L15 39.7631L15.6628 39.1003C18.2588 36.5044 19.6875 33.0544 19.6875 29.3841V29.34C24.0938 30.7331 27.1875 34.8581 27.1875 39.5606V47.8125H23.8013L23.4497 46.7578L24.3722 34.7597L22.5028 34.6153L21.6319 45.9375H8.36812L7.49719 34.6153L5.62781 34.7597L6.55031 46.7578L6.19875 47.8125H2.8125V39.5606C2.8125 34.8581 5.90625 30.7331 10.3125 29.34ZM2.8125 50.625V49.6875H5.57438L4.41844 53.1562C3.45844 52.7025 2.8125 51.7388 2.8125 50.625ZM5.05125 57.1875L8.17594 47.8125H21.8241L24.9487 57.1875H5.05125ZM25.5825 53.1562L24.4256 49.6875H27.1875V50.625C27.1875 51.7388 26.5416 52.7025 25.5825 53.1562ZM57.1875 45.9375H29.0625V44.0625H57.1875V45.9375Z" fill="#51ABD3"/>
<path id="Vector_7" d="M32.8125 53.4375H34.6875V55.3125H32.8125V53.4375Z" fill="#51ABD3"/>
<path id="Vector_8" d="M38.4375 53.4375H40.3125V55.3125H38.4375V53.4375Z" fill="#51ABD3"/>
<path id="Vector_9" d="M44.0625 53.4375H45.9375V55.3125H44.0625V53.4375Z" fill="#51ABD3"/>
<path id="Vector_10" d="M32.8125 15.9375H40.3125V17.4244C40.3125 18.6722 41.3278 19.6875 42.5756 19.6875C43.1728 19.6875 43.7559 19.4456 44.1759 19.0247L47.2631 15.9375H55.3125C56.3466 15.9375 57.1875 15.0966 57.1875 14.0625V2.8125C57.1875 1.77844 56.3466 0.9375 55.3125 0.9375H32.8125C31.7784 0.9375 30.9375 1.77844 30.9375 2.8125V14.0625C30.9375 15.0966 31.7784 15.9375 32.8125 15.9375ZM32.8125 2.8125H55.3125V14.0625H46.4869L42.8494 17.6991C42.6291 17.9212 42.1875 17.7403 42.1875 17.4244V14.0625H32.8125V2.8125Z" fill="#51ABD3"/>
<path id="Vector_11" d="M42.4622 4.96219L37.5 9.92438L36.2878 8.71219L34.9622 10.0378L37.5 12.5756L43.7878 6.28781L42.4622 4.96219Z" fill="#51ABD3"/>
<path id="Vector_12" d="M53.1628 6.28781L51.8372 4.96219L46.875 9.92438L45.6628 8.71219L44.3372 10.0378L46.875 12.5756L53.1628 6.28781Z" fill="#51ABD3"/>
</g>
</g>
<defs>
<clipPath id="clip0_27_150">
<rect width="60" height="60" fill="white"/>
</clipPath>
</defs>
</svg>
