<svg width="40" height="40" viewBox="0 0 40 40" fill="none" xmlns="http://www.w3.org/2000/svg">
<g id="Frame 8">
<rect width="40" height="40" rx="20" fill="#51ABD3"/>
<g id="psychology">
<mask id="mask0_17_913" style="mask-type:alpha" maskUnits="userSpaceOnUse" x="4" y="4" width="32" height="32">
<rect id="Bounding box" x="4" y="4" width="32" height="32" fill="#D9D9D9"/>
</mask>
<g mask="url(#mask0_17_913)">
<path id="psychology_2" d="M12 33.3333V27.6C10.7333 26.4444 9.75 25.0944 9.05 23.55C8.35 22.0055 8 20.3777 8 18.6666C8 15.3333 9.16667 12.5 11.5 10.1666C13.8333 7.83329 16.6667 6.66663 20 6.66663C22.7778 6.66663 25.2389 7.48329 27.3833 9.11663C29.5278 10.75 30.9222 12.8777 31.5667 15.5L33.3 22.3333C33.4111 22.7555 33.3333 23.1388 33.0667 23.4833C32.8 23.8277 32.4444 24 32 24H29.3333V28C29.3333 28.7333 29.0722 29.3611 28.55 29.8833C28.0278 30.4055 27.4 30.6666 26.6667 30.6666H24V33.3333H21.3333V28H26.6667V21.3333H30.2667L29 16.1666C28.4889 14.1444 27.4 12.5 25.7333 11.2333C24.0667 9.96663 22.1556 9.33329 20 9.33329C17.4222 9.33329 15.2222 10.2333 13.4 12.0333C11.5778 13.8333 10.6667 16.0222 10.6667 18.6C10.6667 19.9333 10.9389 21.2 11.4833 22.4C12.0278 23.6 12.8 24.6666 13.8 25.6L14.6667 26.4V33.3333H12ZM18.6667 24H21.3333L21.5333 22.3333C21.7111 22.2666 21.8722 22.1888 22.0167 22.1C22.1611 22.0111 22.2889 21.9111 22.4 21.8L23.9333 22.4666L25.2667 20.2L23.9333 19.2C23.9778 19.0222 24 18.8444 24 18.6666C24 18.4888 23.9778 18.3111 23.9333 18.1333L25.2667 17.1333L23.9333 14.8666L22.4 15.5333C22.2889 15.4222 22.1611 15.3222 22.0167 15.2333C21.8722 15.1444 21.7111 15.0666 21.5333 15L21.3333 13.3333H18.6667L18.4667 15C18.2889 15.0666 18.1278 15.1444 17.9833 15.2333C17.8389 15.3222 17.7111 15.4222 17.6 15.5333L16.0667 14.8666L14.7333 17.1333L16.0667 18.1333C16.0222 18.3111 16 18.4888 16 18.6666C16 18.8444 16.0222 19.0222 16.0667 19.2L14.7333 20.2L16.0667 22.4666L17.6 21.8C17.7111 21.9111 17.8389 22.0111 17.9833 22.1C18.1278 22.1888 18.2889 22.2666 18.4667 22.3333L18.6667 24ZM20 20.6666C19.4444 20.6666 18.9722 20.4722 18.5833 20.0833C18.1944 19.6944 18 19.2222 18 18.6666C18 18.1111 18.1944 17.6388 18.5833 17.25C18.9722 16.8611 19.4444 16.6666 20 16.6666C20.5556 16.6666 21.0278 16.8611 21.4167 17.25C21.8056 17.6388 22 18.1111 22 18.6666C22 19.2222 21.8056 19.6944 21.4167 20.0833C21.0278 20.4722 20.5556 20.6666 20 20.6666Z" fill="white"/>
</g>
</g>
</g>
</svg>
