<svg width="93" height="35" viewBox="0 0 93 35" fill="none" xmlns="http://www.w3.org/2000/svg">
<path d="M13.3675 2.94726C13.2513 3.09693 13.1419 3.25325 13.0257 3.4129C12.7367 3.87262 12.5071 4.36526 12.3421 4.87967C11.9263 5.9078 11.7331 7.0084 11.7747 8.11255C9.38218 5.36859 4.30315 3.21002 0 5.8941C14.0579 8.05601 20.1281 19.0718 17.0075 35H17.1067C27.8799 25.7836 17.7902 15.9187 15.8249 12.5794C14.3176 10.0117 13.8597 7.11807 15.0525 5.07258C15.596 4.22445 16.3821 3.32642 17.3596 2.95059C18.0818 2.6167 18.8743 2.45183 19.6737 2.46915C20.4731 2.48648 21.2573 2.68552 21.9635 3.05036C22.6261 3.39498 23.1945 3.88877 23.6212 4.49053C24.544 5.82093 24.2843 8.10923 23.7203 8.99062C23.1564 9.87201 23.2828 9.58929 23.0162 9.83874C22.3156 10.474 20.9416 10.5039 20.3127 10.1713C19.9451 10.0331 19.6473 9.76114 19.4821 9.41303C19.4579 9.37085 19.4451 9.32331 19.4451 9.27498C19.4451 9.22665 19.4579 9.17914 19.4821 9.13696C19.5076 9.09787 19.5416 9.06476 19.5818 9.04003C19.622 9.01529 19.6673 8.99956 19.7145 8.99394C20.102 8.99234 20.4822 8.89201 20.8174 8.70294C21.1527 8.51387 21.4311 8.24266 21.6252 7.91631C21.8753 7.4795 21.9639 6.97241 21.8762 6.4797C21.7885 5.98698 21.5298 5.53845 21.1432 5.20895C20.8171 4.95839 20.4339 4.78773 20.0259 4.71133C19.6178 4.63492 19.1969 4.65502 18.7985 4.76991C15.5413 5.74776 15.8933 10.7068 18.9455 12.3033C19.6464 12.6831 20.4333 12.8877 21.2355 12.8987C21.9352 12.9264 22.6335 12.815 23.2875 12.5714C23.9416 12.3278 24.5377 11.9571 25.0396 11.4818C25.4381 11.1084 25.783 10.6844 26.065 10.2212C26.5218 9.47858 26.8368 8.66163 26.9947 7.80988C27.1841 7.96031 27.3878 8.09286 27.6031 8.20568C29.312 9.10038 31.9233 7.91631 32.4975 7.01829C32.6633 6.78829 32.7795 6.5281 32.8393 6.25331C32.8532 6.18916 32.8458 6.12239 32.8182 6.06261C32.7905 6.00283 32.7441 5.95313 32.6855 5.92071C32.6425 5.89776 32.5949 5.8841 32.5459 5.88065C32.497 5.87721 32.4478 5.88406 32.4018 5.90075C31.0311 6.38155 29.521 6.31823 28.1978 5.72447C27.5493 5.44726 27.004 4.98284 26.6358 4.39407C26.294 3.94506 26.0958 3.39627 25.7506 2.96721C25.1002 2.11476 24.2631 1.41379 23.2999 0.91507C22.1442 0.311102 20.8521 -0.00324273 19.5402 0.000418163C18.3439 -0.011877 17.1611 0.247118 16.0855 0.75688C15.01 1.26664 14.0712 2.01316 13.3436 2.93728" fill="white"/>
<path d="M90.7546 11.406C90.3891 9.25846 90.1661 7.89943 89.9857 6.70739C88.1268 6.2214 86.2142 5.95818 84.2902 5.92352C78.4476 5.92352 74.9639 8.7065 74.9639 11.9858C74.9639 15.8309 79.5345 17.5007 82.4344 18.6927C85.8327 20.0564 88.3198 21.2484 88.3198 23.767C88.3198 26.2856 86.3311 27.8534 82.8854 27.8534C78.1771 27.8534 76.141 24.4117 75.4622 22.3338L74.1001 22.575C74.4181 24.2077 75.0066 27.1391 75.3246 27.8534C76.0607 28.1443 76.8173 28.383 77.5886 28.5676C79.0436 28.8997 80.5321 29.0709 82.0263 29.0779C88.0492 29.0779 92.0788 26.216 92.0788 22.6445C92.0788 18.7948 87.8072 17.227 84.2475 15.8309C80.6879 14.4348 78.4951 13.2798 78.4951 10.7937C78.4951 8.93841 80.0329 7.08309 83.5213 7.08309C87.4607 7.08309 88.6852 9.43471 89.4541 11.5776L90.7688 11.4106L90.7546 11.406Z" fill="white"/>
<path d="M60.9289 6.97183V5.97923L52.3524 5.97923V6.97183C54.8964 7.07387 55.7318 7.53769 55.9121 9.17037C56.1325 11.1245 56.2182 13.091 56.1684 15.0564V23.781H56.0592L40.8713 5.97923L36.0871 5.97923V7.03677C37.3876 7.19911 38.0948 7.50059 38.764 8.27983C39.4332 9.05906 39.4949 9.27241 39.4949 11.8652V19.6668C39.4949 22.9136 39.3858 24.6298 39.2718 25.7291C39.0915 27.4684 38.147 27.9276 36.0776 28.0482V29.0408H44.6873V28.0482C42.2193 27.9091 41.3649 27.4823 41.1988 25.6734C41.023 23.6807 40.9501 21.6806 40.9805 19.6807V10.7659H41.0564L56.2776 29.0501H57.6493V15.0564C57.5993 13.0563 57.6722 11.0552 57.8676 9.0637C58.0099 7.5377 58.8833 7.07387 60.9194 6.97183H60.9289Z" fill="white"/>
<path d="M73.5398 29.0269V28.0343C69.9896 27.8209 69.6432 27.6447 69.6432 24.5927V10.4088C69.6432 7.3939 69.9896 7.162 73.5398 6.97183V5.97923L62.0634 5.97923V6.97183C65.6136 7.18519 65.9649 7.3939 65.9649 10.4088V24.5927C65.9649 27.6076 65.6136 27.8395 62.0634 28.0343V29.0269L73.5398 29.0269Z" fill="white"/>
</svg>
