<svg width="26" height="26" viewBox="0 0 26 26" fill="none" xmlns="http://www.w3.org/2000/svg">
<circle cx="13" cy="13" r="13" fill="#51ABD3"/>
<path d="M15.7779 12.6098L11.3278 8.15975C11.2249 8.05675 11.0875 8 10.941 8C10.7945 8 10.6571 8.05675 10.5542 8.15975L10.2264 8.48739C10.0132 8.70089 10.0132 9.04788 10.2264 9.26105L13.9633 12.9979L10.2223 16.739C10.1194 16.842 10.0625 16.9793 10.0625 17.1257C10.0625 17.2723 10.1194 17.4096 10.2223 17.5127L10.55 17.8402C10.653 17.9433 10.7903 18 10.9368 18C11.0833 18 11.2207 17.9433 11.3237 17.8402L15.7779 13.3861C15.8811 13.2828 15.9378 13.1448 15.9374 12.9982C15.9378 12.8509 15.8811 12.7131 15.7779 12.6098Z" fill="white"/>
</svg>
