<svg width="60" height="60" viewBox="0 0 60 60" fill="none" xmlns="http://www.w3.org/2000/svg">
<path d="M4.6373 43.1084C4.73886 43.6701 4.87753 44.117 5.07402 44.5154C5.5912 45.5593 6.58542 46.1646 7.19355 46.1646H23.9557C26.3107 49.9871 31.5333 49.5202 33.4646 45.856C50.2401 45.7559 51.0378 46.0733 52.5248 45.342C54.2709 44.4842 54.9381 42.4935 55.36 40.6607C56.4896 35.7615 56.3623 18.4248 55.6896 17.1592C55.3522 16.5243 54.8009 15.9838 53.9629 15.643C54.1904 14.983 53.9752 13.9958 53.192 13.4264C53.3766 12.852 53.2046 12.2194 52.8225 11.8443C52.2701 11.3013 51.5107 11.2248 50.8412 11.1951C45.2998 10.9599 31.0717 12.8037 29.6564 14.2006C29.4123 14.442 29.199 14.8037 29.0174 15.2279C28.8975 14.9318 28.7537 14.6545 28.5846 14.4068C27.649 13.0334 12.9826 10.9693 7.68886 11.1951C7.01972 11.2248 6.25995 11.3013 5.70839 11.8443C5.30881 12.2357 5.15807 12.8852 5.34003 13.431C4.96425 13.7068 4.67753 14.1053 4.55878 14.5576C4.41449 15.1088 4.64164 15.6583 4.98432 16.1021C3.15475 17.5639 4.0355 19.2014 3.85253 32.2709C3.79589 36.3357 4.05253 39.881 4.6373 43.1084ZM6.1498 43.9834C6.00448 43.6889 5.89902 43.3435 5.81777 42.8943C5.24745 39.7443 4.99706 36.2748 5.05253 32.2881C5.23748 19.0079 4.36261 17.6338 6.10751 16.8105C7.90609 16.8307 -0.410011 16.7651 23.7029 16.9657V44.9646H7.25058C6.83027 44.8732 6.40214 44.4928 6.1498 43.9834ZM24.9029 23.2602C27.2558 24.2107 29.9975 24.214 32.4861 23.0384V31.3503C30.1566 32.5581 27.2255 32.5742 24.9029 31.3483V23.2602ZM32.4861 21.7056C30.2009 23.0026 27.2698 23.0848 24.9029 21.9465V18.1424C27.1193 20.2446 30.3103 20.0851 32.4861 17.9922V21.7056ZM24.9029 32.661C27.3569 33.7443 30.1003 33.7168 32.4861 32.6824V39.3901C32.4485 39.4029 32.4093 39.4078 32.3736 39.4287C30.1332 40.7488 27.2432 40.8447 24.9029 39.7226V32.661ZM28.7334 47.6287C27.2265 47.666 25.7025 46.7923 24.9029 45.3948V41.0398C27.358 42.0241 30.1125 41.9081 32.4861 40.7102V45.1134C31.824 46.5348 30.3002 47.5653 28.7334 47.6287ZM54.617 17.6943C55.0084 18.7701 55.3678 35.2857 54.1912 40.3912C53.2858 44.3178 51.9966 44.6067 49.6076 44.6209C44.6219 44.6539 38.7404 44.6268 33.6861 44.6553C33.6861 37.2396 33.6861 23.3902 33.6861 16.6678C33.8546 16.6664 52.805 16.5814 52.8995 16.582C53.7566 16.7139 54.34 17.1787 54.617 17.6943Z" fill="#51ABD3"/>
<path d="M17.3697 36.9467C17.2892 36.9467 15.8634 36.9567 15.944 36.9568C15.9557 35.342 15.9705 33.5584 15.9881 32.2881C16.003 31.194 14.583 30.7712 13.983 31.6763C11.5085 35.3945 10.8812 36.3413 10.2768 37.2646C10.0158 37.6637 10.3021 38.1935 10.7787 38.1935C10.8593 38.1935 14.8163 38.166 14.7358 38.1654C14.7263 39.6131 14.7262 39.5445 14.7213 41.1037C14.7252 41.4326 14.9932 41.6967 15.3213 41.6967H15.3283C15.66 41.6928 15.9252 41.4209 15.9213 41.0896C15.9261 39.5487 15.9266 39.5726 15.9358 38.1568L17.374 38.1467C17.7053 38.1443 17.9721 37.874 17.9697 37.5428C17.9674 37.2123 17.6994 36.9467 17.3697 36.9467ZM14.744 36.9654L11.8963 36.9857C12.384 36.2467 12.8026 35.6166 14.7834 32.6404C14.7678 33.8803 14.7545 35.4935 14.744 36.9654Z" fill="#51ABD3"/>
<path d="M42.3389 36.2185C42.3436 35.5849 42.4201 34.9443 42.6428 34.3529C43.0826 33.1818 43.5811 32.6943 44.4811 32.5545C45.4097 32.4039 46.605 33.0226 46.6928 33.8896C46.7264 34.2193 47.0256 34.4654 47.3498 34.4264C47.6795 34.3935 47.9194 34.099 47.8865 33.7693C47.5525 30.4328 40.2929 29.4576 41.2389 37.824C41.46 39.7836 42.1828 41.1787 44.2061 41.4998C47.5553 42.0383 49.0174 38.2623 46.9639 36.3514C45.676 35.1532 43.8645 34.9547 42.3389 36.2185ZM44.3944 40.3146C43.0281 40.0985 42.616 39.2107 42.4483 37.8357C43.0389 37.0646 43.6819 36.6381 44.3623 36.5685C45.4403 36.452 46.7711 37.3052 46.6967 38.6592C46.6324 39.859 45.6025 40.5122 44.3944 40.3146Z" fill="#51ABD3"/>
<path d="M39.9764 25.3287C40.9003 24.0734 39.819 22.452 38.4295 22.6029C36.8017 22.7626 36.3725 25.0727 37.5154 24.9889C37.8459 24.9678 38.0967 24.6818 38.0748 24.3514C38.0584 24.1014 38.2967 23.8217 38.5467 23.7967C38.7998 23.7842 39.0842 24.0006 39.117 24.2498C39.149 24.4982 38.9303 24.7935 38.6826 24.8342C38.367 24.8865 38.1483 25.1764 38.1842 25.4935C38.2201 25.8115 38.499 26.049 38.817 26.0256C38.9678 26.0014 39.1444 26.1459 39.1967 26.3068C39.3298 26.7062 38.9084 27.1517 38.36 27.0396C38.2397 27.0146 38.1404 26.9662 38.0881 26.9068C38.0608 26.8748 38.0506 26.8373 38.0506 26.831C38.1498 26.5146 37.9733 26.1779 37.6576 26.0787C36.4987 25.7136 36.4455 28.2553 38.5194 28.2553C40.1849 28.2553 40.9874 26.3989 39.9764 25.3287Z" fill="#51ABD3"/>
<path d="M51.9022 25.3279C52.8226 24.0735 51.7394 22.4568 50.3545 22.6014C48.7222 22.7615 48.311 25.0395 49.4404 24.9881C49.7709 24.967 50.0217 24.681 49.9998 24.3506C49.9834 24.0998 50.2217 23.8201 50.4709 23.7951C50.7193 23.7779 51.0092 23.9998 51.042 24.249C51.074 24.4974 50.8553 24.7928 50.6076 24.8334C50.292 24.8857 50.0732 25.1756 50.1092 25.4928C50.1451 25.8107 50.4232 26.049 50.742 26.0248C50.8936 26.0014 51.0701 26.1451 51.1225 26.3045C51.2552 26.708 50.834 27.1514 50.285 27.0381C50.1639 27.0131 50.0654 26.9646 50.0123 26.9037C49.9857 26.8732 49.9756 26.8365 49.9756 26.8303C50.0748 26.5139 49.8982 26.1771 49.5826 26.0779C48.8008 25.8338 48.4804 26.9765 49.1084 27.6928C49.7246 28.4021 51.0165 28.4598 51.7803 27.742C52.4342 27.1295 52.5731 26.0383 51.9022 25.3279Z" fill="#51ABD3"/>
<path d="M10.8982 27.3318C10.8877 27.0006 10.6205 26.7467 10.2799 26.7506L9.08494 26.7881C9.33806 26.4959 9.58572 26.1787 9.83064 25.835C10.1092 25.4435 10.3912 24.9662 10.3713 24.3967C10.3498 23.7912 9.95564 23.2146 9.39041 22.9623C8.32312 22.4845 7.0283 23.186 6.8365 24.4646C6.78728 24.7928 7.01345 25.0982 7.34119 25.1475C7.66814 25.1881 7.974 24.9709 8.02322 24.6428C8.09372 24.1694 8.5383 23.8974 8.90134 24.0576C9.05017 24.124 9.16658 24.2881 9.17205 24.4389C9.17947 24.6506 9.01463 24.9115 8.85252 25.1396C8.32048 25.8873 7.77791 26.4873 7.19353 26.974C6.76171 27.3339 7.02024 28.035 7.57752 28.035C7.65807 28.035 10.3979 27.9519 10.3174 27.9506C10.6486 27.9396 10.9088 27.6631 10.8982 27.3318Z" fill="#51ABD3"/>
<path d="M20.6197 26.7506L19.4248 26.7881C19.6783 26.4951 19.9263 26.1787 20.1709 25.835C20.4494 25.4428 20.7314 24.9654 20.7115 24.3967C20.69 23.7912 20.2959 23.2146 19.7306 22.9623C17.7806 22.0899 16.3868 24.953 17.6814 25.1475C18.006 25.1881 18.3146 24.9709 18.3635 24.6428C18.483 23.8399 19.4909 23.8488 19.5123 24.4389C19.5197 24.6498 19.3549 24.9115 19.1928 25.1396C18.6615 25.8865 18.1185 26.4865 17.5338 26.974C17.1032 27.3328 17.3583 28.035 17.9178 28.035C17.9983 28.035 20.7378 27.9519 20.6572 27.9506C20.9885 27.9396 21.2486 27.6631 21.2381 27.3318C21.2275 27.0006 20.9603 26.7467 20.6197 26.7506Z" fill="#51ABD3"/>
<path d="M13.3009 25.4688L12.4146 26.6435C12.215 26.9084 12.2677 27.2849 12.5322 27.4842C12.7952 27.6836 13.1727 27.6315 13.3724 27.367L14.1067 26.3939C14.7837 27.0953 14.9115 27.5185 15.3599 27.5185C15.8667 27.5185 16.1535 26.9165 15.8119 26.524L14.8453 25.4148L15.7314 24.2404C15.931 23.9756 15.8783 23.599 15.6138 23.3998C15.3498 23.2006 14.974 23.2529 14.7736 23.517L14.0395 24.49L13.2392 23.5717C13.022 23.3209 12.6427 23.2943 12.3927 23.5131C12.1427 23.7303 12.117 24.1099 12.3345 24.3592L13.3009 25.4688Z" fill="#51ABD3"/>
<path d="M43.7471 25.2949L42.7428 26.6264C42.5428 26.8904 42.5959 27.267 42.8608 27.4662C43.1222 27.6651 43.5006 27.6144 43.7006 27.3482L44.5526 26.2193C45.3893 27.0961 45.4805 27.492 45.9342 27.492C46.4446 27.492 46.7251 26.8853 46.3865 26.4982L45.2912 25.2405L46.2959 23.9092C46.4959 23.6443 46.4428 23.2685 46.1787 23.0685C45.9131 22.8678 45.5373 22.9209 45.3381 23.1857L44.4858 24.3157L43.5561 23.2482C43.3381 22.9982 42.96 22.9724 42.7092 23.1904C42.46 23.4084 42.4334 23.7873 42.6514 24.0373L43.7471 25.2949Z" fill="#51ABD3"/>
</svg>
