<svg width="32" height="32" viewBox="0 0 32 32" fill="none" xmlns="http://www.w3.org/2000/svg">
<g id="Layer_1">
<g id="Group">
<path id="Vector" d="M22.478 28.9082H7.60986C6.38428 28.9082 5.38721 27.9121 5.38721 26.6865V22.8057V22.167V20.582C5.38733 20.5776 5.38965 20.5739 5.38965 20.5693C5.38965 20.5654 5.38733 20.5621 5.38721 20.5581V5.23145C5.38721 4.00586 6.38428 3.00977 7.60986 3.00977H18.6333V7.09082C18.6333 8.18652 19.5244 9.07812 20.6201 9.07812H24.7007V10.1055C24.7007 10.3262 24.8799 10.5059 25.1006 10.5059C25.3213 10.5059 25.5005 10.3262 25.5005 10.1055V8.67578C25.5005 8.56934 25.4585 8.46777 25.3833 8.39258L19.3159 2.32617C19.3083 2.31866 19.2977 2.31555 19.2896 2.30865C19.2582 2.2818 19.2254 2.25623 19.1868 2.24005C19.1385 2.21991 19.0864 2.20898 19.0332 2.20898H7.60986C5.94336 2.20898 4.5874 3.56543 4.5874 5.23145V22.167V22.8057V26.6865C4.5874 28.3525 5.94336 29.709 7.60986 29.709H22.478C22.6987 29.709 22.8779 29.5293 22.8779 29.3086C22.8779 29.0879 22.6987 28.9082 22.478 28.9082Z" fill="white"/>
<path id="Vector_2" d="M20.0347 13.4131H12.521C12.3003 13.4131 12.1211 13.5928 12.1211 13.8135C12.1211 14.0342 12.3003 14.2139 12.521 14.2139H20.0347C20.2554 14.2139 20.4346 14.0342 20.4346 13.8135C20.4346 13.5928 20.2554 13.4131 20.0347 13.4131Z" fill="white"/>
<path id="Vector_3" d="M9.9834 13.4131H8.87354C8.65283 13.4131 8.47363 13.5928 8.47363 13.8135C8.47363 14.0342 8.65283 14.2139 8.87354 14.2139H9.9834C10.2041 14.2139 10.3833 14.0342 10.3833 13.8135C10.3833 13.5928 10.2041 13.4131 9.9834 13.4131Z" fill="white"/>
<path id="Vector_4" d="M12.521 10.6855H15.8115C16.0322 10.6855 16.2114 10.5059 16.2114 10.2852C16.2114 10.0645 16.0322 9.88477 15.8115 9.88477H12.521C12.3003 9.88477 12.1211 10.0645 12.1211 10.2852C12.1211 10.5059 12.3003 10.6855 12.521 10.6855Z" fill="white"/>
<path id="Vector_5" d="M9.9834 9.88477H8.87354C8.65283 9.88477 8.47363 10.0645 8.47363 10.2852C8.47363 10.5059 8.65283 10.6855 8.87354 10.6855H9.9834C10.2041 10.6855 10.3833 10.5059 10.3833 10.2852C10.3833 10.0645 10.2041 9.88477 9.9834 9.88477Z" fill="white"/>
<path id="Vector_6" d="M20.0347 16.6777H12.521C12.3003 16.6777 12.1211 16.8574 12.1211 17.0781C12.1211 17.2988 12.3003 17.4785 12.521 17.4785H20.0347C20.2554 17.4785 20.4346 17.2988 20.4346 17.0781C20.4346 16.8574 20.2554 16.6777 20.0347 16.6777Z" fill="white"/>
<path id="Vector_7" d="M9.9834 16.6777H8.87354C8.65283 16.6777 8.47363 16.8574 8.47363 17.0781C8.47363 17.2988 8.65283 17.4785 8.87354 17.4785H9.9834C10.2041 17.4785 10.3833 17.2988 10.3833 17.0781C10.3833 16.8574 10.2041 16.6777 9.9834 16.6777Z" fill="white"/>
<path id="Vector_8" d="M20.0347 19.9424H12.521C12.3003 19.9424 12.1211 20.1221 12.1211 20.3428C12.1211 20.5635 12.3003 20.7432 12.521 20.7432H20.0347C20.2554 20.7432 20.4346 20.5635 20.4346 20.3428C20.4346 20.1221 20.2554 19.9424 20.0347 19.9424Z" fill="white"/>
<path id="Vector_9" d="M9.9834 19.9424H8.87354C8.65283 19.9424 8.47363 20.1221 8.47363 20.3428C8.47363 20.5635 8.65283 20.7432 8.87354 20.7432H9.9834C10.2041 20.7432 10.3833 20.5635 10.3833 20.3428C10.3833 20.1221 10.2041 19.9424 9.9834 19.9424Z" fill="white"/>
<path id="Vector_10" d="M20.0347 23.2061H12.521C12.3003 23.2061 12.1211 23.3857 12.1211 23.6064C12.1211 23.8271 12.3003 24.0068 12.521 24.0068H20.0347C20.2554 24.0068 20.4346 23.8271 20.4346 23.6064C20.4346 23.3857 20.2554 23.2061 20.0347 23.2061Z" fill="white"/>
<path id="Vector_11" d="M9.9834 23.2061H8.87354C8.65283 23.2061 8.47363 23.3857 8.47363 23.6064C8.47363 23.8271 8.65283 24.0068 8.87354 24.0068H9.9834C10.2041 24.0068 10.3833 23.8271 10.3833 23.6064C10.3833 23.3857 10.2041 23.2061 9.9834 23.2061Z" fill="white"/>
<path id="Vector_12" d="M26.0522 11.4258H24.3457C23.5957 11.4258 22.9854 12.0361 22.9854 12.7861V15.0918H22.4927V14.7207C22.4927 14.5 22.3135 14.3203 22.0928 14.3203C21.8721 14.3203 21.6929 14.5 21.6929 14.7207V17.875C21.6929 18.0957 21.8721 18.2754 22.0928 18.2754C22.3135 18.2754 22.4927 18.0957 22.4927 17.875V15.8926H22.9854V21.9883C22.9847 21.996 22.98 22.0018 22.98 22.0098C22.98 22.0177 22.9847 22.0254 22.9854 22.0333V23.2686V23.6064V26.416C22.9854 26.4893 23.0054 26.5615 23.0439 26.624L24.8574 29.5986C24.9297 29.7178 25.0591 29.791 25.1987 29.791C25.3384 29.791 25.4678 29.7178 25.54 29.5986L27.354 26.624C27.3926 26.5615 27.4126 26.4893 27.4126 26.416V12.7861C27.4126 12.0361 26.8022 11.4258 26.0522 11.4258ZM23.7852 12.7861C23.7852 12.4775 24.0366 12.2266 24.3457 12.2266H26.0522C26.3613 12.2266 26.6128 12.4775 26.6128 12.7861V14.3604H23.7852V12.7861ZM24.7939 23.4028V22.4868V18.1987V17.2827C24.7939 17.062 24.9731 16.8823 25.1938 16.8823C25.4146 16.8823 25.5938 17.062 25.5938 17.2827V18.1987V22.4868V23.4028C25.5938 23.6235 25.4146 23.8032 25.1938 23.8032C24.9731 23.8032 24.7939 23.6235 24.7939 23.4028ZM25.1987 28.6221L23.8739 26.4492H26.524L25.1987 28.6221Z" fill="white"/>
</g>
</g>
</svg>
