<svg width="60" height="60" viewBox="0 0 60 60" fill="none" xmlns="http://www.w3.org/2000/svg">
<g id="Layer_5" clip-path="url(#clip0_27_135)">
<g id="Group">
<path id="Vector" d="M17.4194 20.3226C17.9538 20.3226 18.3871 19.8893 18.3871 19.3548C18.3871 18.8204 17.9538 18.3871 17.4194 18.3871C16.8849 18.3871 16.4516 18.8204 16.4516 19.3548C16.4516 19.8893 16.8849 20.3226 17.4194 20.3226Z" fill="#51ABD3"/>
<path id="Vector_2" d="M27.0968 20.3226C27.6312 20.3226 28.0645 19.8893 28.0645 19.3548C28.0645 18.8204 27.6312 18.3871 27.0968 18.3871C26.5623 18.3871 26.129 18.8204 26.129 19.3548C26.129 19.8893 26.5623 20.3226 27.0968 20.3226Z" fill="#51ABD3"/>
<path id="Vector_3" d="M22.2581 27.0968C20.9439 27.0968 19.7903 26.2113 19.4526 24.9445L17.5819 25.4429C18.1452 27.5564 20.0681 29.0323 22.2581 29.0323C24.4829 29.0323 26.4126 27.5264 26.9516 25.3713L25.0752 24.9019C24.751 26.1939 23.5926 27.0968 22.2581 27.0968Z" fill="#51ABD3"/>
<path id="Vector_4" d="M21.7229 24.0919L22.7923 23.5568C23.2548 23.3255 23.5994 22.9277 23.7629 22.4371C23.9265 21.9465 23.8897 21.4219 23.6584 20.9594L23.2258 20.0942V18.3871H21.2903V20.3226C21.2903 20.4726 21.3252 20.6216 21.3919 20.7552L21.9271 21.8245L20.8577 22.3597L21.7229 24.0919Z" fill="#51ABD3"/>
<path id="Vector_5" d="M43.949 30.9677C44.5732 30.9677 45.1587 30.7248 45.601 30.2835L48.7877 27.0968H57.0968C58.6974 27.0968 60 25.7942 60 24.1935V8.70968C60 7.10903 58.6974 5.80645 57.0968 5.80645H33.8439C31.1923 2.28871 26.9932 0 22.2581 0C14.2539 0 7.74194 6.51194 7.74194 14.5161V16.0229C6.59032 16.6945 5.80645 17.9294 5.80645 19.3548C5.80645 21.4897 7.54258 23.2258 9.67742 23.2258V37.8948C7.38871 40.0848 5.96613 43.1119 5.82871 46.4516H2.90323C1.30258 46.4516 0 47.7542 0 49.3548C0 50.9555 1.30258 52.2581 2.90323 52.2581H10.6452C11.1794 52.2581 11.6129 52.6926 11.6129 53.2258V54.1935C11.6129 55.7942 12.9155 57.0968 14.5161 57.0968C16.1168 57.0968 17.4194 55.7942 17.4194 54.1935V50.3226C17.4194 49.7894 17.8529 49.3548 18.3871 49.3548C18.9213 49.3548 19.3548 49.7894 19.3548 50.3226V57.0968C19.3548 58.6974 20.6574 60 22.2581 60C23.8587 60 25.1613 58.6974 25.1613 57.0968V55.1613C25.1613 54.6281 25.5948 54.1935 26.129 54.1935H29.0323V56.129H35.0168C35.4174 57.2526 36.4819 58.0645 37.7419 58.0645H43.9365C44.6806 59.2674 45.9832 60 47.4194 60C48.8555 60 50.1581 59.2674 50.9023 58.0645H57.0968C58.6974 58.0645 60 56.7619 60 55.1613V43.5484C60 41.9477 58.6974 40.6452 57.0968 40.6452H56.129V36.7742H50.3226C49.1603 36.7742 48.1297 37.2987 47.4194 38.1116C46.709 37.2987 45.6784 36.7742 44.5161 36.7742H38.7097V40.6452H37.7419C37.4961 40.6452 37.2619 40.6848 37.0345 40.7429C35.2965 37.6984 32.4077 35.5181 28.9568 34.7216L26.129 34.0694L26.13 32.5732C28.6868 31.4777 30.6794 29.5065 31.8242 27.0968H41.6129V28.6316C41.6129 29.9197 42.661 30.9677 43.949 30.9677ZM9.67742 14.5161C9.67742 7.57935 15.3213 1.93548 22.2581 1.93548C29.1948 1.93548 34.8387 7.57935 34.8387 14.5161V15.4839H32.9032V14.5161C32.9032 8.64677 28.1274 3.87097 22.2581 3.87097C16.3887 3.87097 11.6129 8.64677 11.6129 14.5161V15.4839H9.67742V14.5161ZM32.9042 21.2903L32.9032 17.4194H34.8387C35.9061 17.4194 36.7742 18.2874 36.7742 19.3548C36.7742 20.4223 35.9061 21.2903 34.8387 21.2903H32.9042ZM30.9677 15.4006C29.7232 15.2013 28.5735 14.6235 27.6639 13.7148L25.8639 11.9148L24.5884 14.4668C23.4658 14.2732 22.5135 13.5155 22.079 12.4287L21.8235 11.791C21.3097 10.5068 20.0835 9.67742 18.7006 9.67742C17.5732 9.67742 16.5271 10.2377 15.9019 11.1745L14.94 12.6184C14.4919 12.6813 14.07 12.8265 13.6839 13.0306C14.3932 8.93516 17.9632 5.80645 22.2581 5.80645C27.061 5.80645 30.9677 9.71419 30.9677 14.5161V15.4006ZM7.74194 19.3548C7.74194 18.2874 8.61 17.4194 9.67742 17.4194H11.6129V21.2903H9.67742C8.61 21.2903 7.74194 20.4232 7.74194 19.3548ZM11.6129 23.2258H11.6535C11.9923 27.3261 14.5577 30.9329 18.3871 32.5732V34.0684L15.5584 34.7206C14.1232 35.0516 12.7965 35.6148 11.6129 36.3658V23.2258ZM19.05 35.9023L20.8897 37.7419L18.0135 40.6171L17.1581 36.3387L19.05 35.9023ZM9.67742 40.8494V45.4839C9.67742 46.0171 9.24387 46.4516 8.70968 46.4516H7.76419C7.86484 44.3816 8.54806 42.4558 9.67742 40.8494ZM30.9677 54.1935V52.2581H34.8387V54.1935H30.9677ZM50.3226 38.7097H54.1935V52.2581H48.3871V40.6452C48.3871 39.5777 49.2552 38.7097 50.3226 38.7097ZM40.6452 38.7097H44.5161C45.5835 38.7097 46.4516 39.5777 46.4516 40.6452V52.2581H40.6452V38.7097ZM38.7097 42.5806V54.1935H46.4516H48.3871H56.129V42.5806H57.0968C57.631 42.5806 58.0645 43.0152 58.0645 43.5484V55.1613C58.0645 55.6945 57.631 56.129 57.0968 56.129H49.7245L49.3548 56.8684C48.9861 57.6058 48.2448 58.0645 47.4194 58.0645C46.5939 58.0645 45.8526 57.6058 45.4839 56.8684L45.1142 56.129H37.7419C37.2077 56.129 36.7742 55.6945 36.7742 55.1613V43.5484C36.7742 43.0152 37.2077 42.5806 37.7419 42.5806H38.7097ZM35.4223 41.821C35.0603 42.3048 34.8387 42.899 34.8387 43.5484V50.3226H29.0323V52.2581H26.129C24.5284 52.2581 23.2258 53.5606 23.2258 55.1613V57.0968C23.2258 57.63 22.7923 58.0645 22.2581 58.0645C21.7239 58.0645 21.2903 57.63 21.2903 57.0968V50.3226C21.2903 48.7219 19.9877 47.4194 18.3871 47.4194C16.7865 47.4194 15.4839 48.7219 15.4839 50.3226V54.1935C15.4839 54.7268 15.0503 55.1613 14.5161 55.1613C13.9819 55.1613 13.5484 54.7268 13.5484 54.1935V53.2258C13.5484 51.6252 12.2458 50.3226 10.6452 50.3226H2.90323C2.36903 50.3226 1.93548 49.8881 1.93548 49.3548C1.93548 48.8216 2.36903 48.3871 2.90323 48.3871H8.70968C10.3103 48.3871 11.6129 47.0845 11.6129 45.4839V38.7658C12.6716 37.8958 13.9065 37.2223 15.2768 36.8061L16.8242 44.5442L21.2903 40.0781V46.4516H23.2258V40.0781L27.691 44.5432L29.2355 36.8148C31.8813 37.621 34.08 39.3987 35.4223 41.821ZM27.3581 36.3387L26.5026 40.6171L23.6264 37.7419L25.4661 35.9023L27.3581 36.3387ZM25.3655 30.7955C24.6523 31.1023 24.1916 31.8019 24.1935 32.5742V34.4381L22.2581 36.3735L20.3226 34.4381V32.5713C20.3206 31.7971 19.86 31.1003 19.1487 30.7955C15.7471 29.3371 13.5494 26.0032 13.5484 22.3026V16.4516C13.5484 15.3842 14.4165 14.5161 15.4839 14.5161H16.0016L17.5132 12.2487C17.7784 11.851 18.2226 11.6129 18.7006 11.6129C19.2871 11.6129 19.8077 11.9652 20.0255 12.51L20.281 13.1477C21.0842 15.1548 22.9994 16.4516 25.1613 16.4516H25.7594L26.3942 15.181C27.6561 16.3994 29.249 17.1552 30.9677 17.3613L30.9687 22.2997C30.9687 26.0023 28.77 29.3361 25.3655 30.7955ZM32.5258 25.1613C32.6923 24.5323 32.8084 23.8868 32.8626 23.2258H34.8387C36.9735 23.2258 38.7097 21.4897 38.7097 19.3548C38.7097 17.9284 37.9258 16.6935 36.7742 16.0219V14.5161C36.7742 12.0697 36.1597 9.76645 35.0865 7.74194H57.0968C57.631 7.74194 58.0645 8.17645 58.0645 8.70968V24.1935C58.0645 24.7268 57.631 25.1613 57.0968 25.1613H47.9865L44.2335 28.9142C43.9984 29.1465 43.5484 28.9597 43.5484 28.6316V25.1613H32.5258Z" fill="#51ABD3"/>
<path id="Vector_6" d="M46.4516 21.2903H42.5806V17.4193H46.4516V15.4839H42.5806V11.6129H46.4516V9.67741H40.6452V23.2258H46.4516V21.2903Z" fill="#51ABD3"/>
<path id="Vector_7" d="M50.3226 13.7052L53.4958 23.2258H56.129V9.67741H54.1935V19.1981L51.0203 9.67741H48.3871V23.2258H50.3226V13.7052Z" fill="#51ABD3"/>
<path id="Vector_8" d="M42.5806 48.3871H44.5161V50.3226H42.5806V48.3871Z" fill="#51ABD3"/>
<path id="Vector_9" d="M42.5806 40.6452H44.5161V42.5806H42.5806V40.6452Z" fill="#51ABD3"/>
<path id="Vector_10" d="M42.5806 44.5161H44.5161V46.4516H42.5806V44.5161Z" fill="#51ABD3"/>
<path id="Vector_11" d="M50.3226 44.5161H52.2581V46.4516H50.3226V44.5161Z" fill="#51ABD3"/>
<path id="Vector_12" d="M50.3226 40.6452H52.2581V42.5806H50.3226V40.6452Z" fill="#51ABD3"/>
<path id="Vector_13" d="M50.3226 48.3871H52.2581V50.3226H50.3226V48.3871Z" fill="#51ABD3"/>
</g>
</g>
<defs>
<clipPath id="clip0_27_135">
<rect width="60" height="60" fill="white"/>
</clipPath>
</defs>
</svg>
