<svg width="26" height="26" viewBox="0 0 26 26" fill="none" xmlns="http://www.w3.org/2000/svg">
<g id="Layer_1" clip-path="url(#clip0_17_899)">
<path id="Vector" d="M16.0591 13.3047C17.119 11.5281 17.4906 9.4244 17.1033 7.39216C16.7161 5.35992 15.5971 3.54026 13.9581 2.27785C12.3191 1.01544 10.2741 0.397954 8.2103 0.542356C6.14655 0.686758 4.20742 1.58302 2.76022 3.06137C1.31301 4.53972 0.458241 6.4975 0.357812 8.56386C0.257382 10.6302 0.918269 12.6617 2.21529 14.2734C3.51231 15.8851 5.35538 16.9652 7.3954 17.309C9.43543 17.6529 11.5307 17.2366 13.2844 16.1391L21.5857 24.713C21.7989 24.9349 22.0543 25.112 22.3368 25.234C22.6193 25.3559 22.9233 25.4202 23.231 25.4232H23.2672C23.8818 25.4255 24.4724 25.1852 24.9109 24.7545C25.1308 24.5408 25.3048 24.2845 25.4223 24.0012C25.5397 23.718 25.5981 23.4137 25.5938 23.1071C25.5896 22.8005 25.5228 22.4979 25.3975 22.218C25.2722 21.9381 25.0912 21.6868 24.8654 21.4793L16.0591 13.3047ZM1.21877 9.00091C1.21877 7.4954 1.66521 6.0237 2.50163 4.77192C3.33806 3.52014 4.5269 2.5445 5.91782 1.96838C7.30873 1.39227 8.83926 1.24155 10.3158 1.53529C11.7924 1.82903 13.1487 2.55404 14.2132 3.61862C15.2778 4.68321 16.0027 6.03956 16.2964 7.51615C16.59 8.99274 16.4392 10.5233 15.863 11.9141C15.2869 13.305 14.3112 14.4938 13.0593 15.3302C11.8075 16.1665 10.3358 16.6129 8.83027 16.6128C6.81223 16.6104 4.87753 15.8077 3.45059 14.3807C2.02366 12.9537 1.22102 11.0189 1.21877 9.00091ZM24.3421 24.1743C24.0505 24.4586 23.6581 24.6155 23.2509 24.6108C22.8437 24.606 22.4551 24.4398 22.1703 24.1488L13.9592 15.6691C14.5822 15.1881 15.1354 14.6229 15.6029 13.9897L24.3133 22.0761C24.4583 22.2087 24.5747 22.3697 24.6552 22.5491C24.7357 22.7284 24.7786 22.9224 24.7813 23.119C24.784 23.3155 24.7464 23.5106 24.6709 23.6921C24.5954 23.8736 24.4835 24.0377 24.3421 24.1743Z" fill="white"/>
<path id="Vector_2" d="M8.83026 2.71167C7.5864 2.71175 6.37049 3.08067 5.3363 3.77178C4.30211 4.46289 3.49607 5.44515 3.02012 6.59435C2.54417 7.74355 2.41969 9.00808 2.6624 10.228C2.90512 11.448 3.50413 12.5686 4.3837 13.4481C5.26327 14.3276 6.38389 14.9265 7.60386 15.1692C8.82382 15.4118 10.0883 15.2872 11.2375 14.8112C12.3867 14.3352 13.3689 13.5291 14.0599 12.4949C14.751 11.4606 15.1198 10.2447 15.1198 9.00083C15.1178 7.3334 14.4545 5.73485 13.2754 4.55583C12.0963 3.37682 10.4977 2.71361 8.83026 2.71167ZM8.83026 3.52417C9.96246 3.52651 11.0662 3.87921 11.99 4.53384C12.9137 5.18848 13.6122 6.11297 13.9896 7.18042L13.0492 7.5562C12.9431 7.38316 12.8022 7.23405 12.6354 7.11832C12.4686 7.0026 12.2796 6.92278 12.0804 6.88393C11.8812 6.84509 11.676 6.84806 11.478 6.89265C11.28 6.93725 11.0934 7.0225 10.9301 7.14301C10.7667 7.26351 10.6302 7.41664 10.5291 7.59268C10.4281 7.76872 10.3647 7.96383 10.343 8.16566C10.3213 8.36748 10.3418 8.5716 10.4032 8.76509C10.4645 8.95858 10.5654 9.13722 10.6994 9.28967L9.57898 10.744C9.2336 10.6035 8.84698 10.6035 8.5016 10.744L6.79129 9.03048C6.9109 8.8169 6.97449 8.57652 6.97613 8.33173C6.97613 7.94181 6.82123 7.56785 6.54551 7.29213C6.26979 7.01641 5.89584 6.86151 5.50591 6.86151C5.11599 6.86151 4.74203 7.01641 4.46631 7.29213C4.19059 7.56785 4.03569 7.94181 4.03569 8.33173C4.0367 8.41778 4.0454 8.50357 4.06169 8.58808L3.3601 9.12961C3.3601 9.08654 3.3536 9.04429 3.3536 9.00083C3.35564 7.54895 3.9333 6.15713 4.95993 5.1305C5.98656 4.10387 7.37838 3.52621 8.83026 3.52417ZM11.1459 8.33092C11.1458 8.20074 11.1843 8.07346 11.2566 7.96517C11.3289 7.85689 11.4316 7.77248 11.5519 7.7226C11.6721 7.67273 11.8045 7.65964 11.9322 7.68498C12.0598 7.71033 12.1771 7.77298 12.2692 7.86501C12.3613 7.95703 12.424 8.0743 12.4495 8.20197C12.4749 8.32965 12.4619 8.46199 12.4121 8.58227C12.3623 8.70255 12.2779 8.80536 12.1697 8.8777C12.0614 8.95003 11.9342 8.98864 11.804 8.98864C11.6298 8.98821 11.4628 8.91875 11.3397 8.79547C11.2166 8.6722 11.1473 8.50515 11.1471 8.33092H11.1459ZM9.03907 11.4505C9.16925 11.4504 9.29653 11.489 9.40481 11.5612C9.5131 11.6335 9.59751 11.7363 9.64739 11.8565C9.69726 11.9768 9.71035 12.1091 9.685 12.2368C9.65966 12.3645 9.59701 12.4818 9.50498 12.5739C9.41296 12.6659 9.29569 12.7287 9.16802 12.7541C9.04034 12.7795 8.908 12.7665 8.78772 12.7167C8.66744 12.6669 8.56463 12.5826 8.49229 12.4743C8.41996 12.3661 8.38135 12.2388 8.38135 12.1086C8.38157 11.9342 8.45092 11.767 8.5742 11.6437C8.69749 11.5203 8.86466 11.4508 9.03907 11.4505ZM4.84819 8.33092C4.84819 8.20084 4.88677 8.07367 4.95904 7.96551C5.03131 7.85735 5.13403 7.77305 5.25422 7.72327C5.3744 7.67349 5.50664 7.66046 5.63423 7.68584C5.76181 7.71122 5.87901 7.77386 5.97099 7.86584C6.06297 7.95783 6.12562 8.07502 6.15099 8.20261C6.17637 8.33019 6.16335 8.46244 6.11357 8.58262C6.06378 8.7028 5.97948 8.80552 5.87132 8.87779C5.76316 8.95006 5.636 8.98864 5.50591 8.98864C5.33154 8.98842 5.16437 8.91906 5.04107 8.79576C4.91777 8.67246 4.84841 8.50529 4.84819 8.33092ZM8.82944 14.4775C7.56465 14.4757 6.33934 14.0368 5.36104 13.2352C4.38274 12.4335 3.71159 11.3184 3.46126 10.0786L4.43219 9.32786C4.65327 9.57179 4.95125 9.73262 5.2765 9.78355C5.60175 9.83448 5.93463 9.77244 6.21969 9.60776L7.85404 11.245C7.66953 11.4951 7.56988 11.7978 7.56966 12.1086C7.56826 12.3417 7.62226 12.5717 7.72722 12.7798C7.83217 12.9879 7.98508 13.168 8.17333 13.3054C8.36158 13.4428 8.57979 13.5335 8.80997 13.57C9.04014 13.6065 9.2757 13.5877 9.49721 13.5153C9.71873 13.4429 9.91986 13.3189 10.084 13.1535C10.2482 12.9881 10.3707 12.786 10.4415 12.564C10.5122 12.3419 10.5292 12.1062 10.491 11.8763C10.4528 11.6464 10.3605 11.4289 10.2217 11.2417L11.3844 9.73208C11.5207 9.77579 11.6628 9.79906 11.806 9.80114C12.1944 9.80061 12.5667 9.64656 12.8419 9.37259C13.1171 9.09862 13.2728 8.72695 13.275 8.33864L14.2094 7.96651C14.3641 8.75922 14.3411 9.57635 14.1422 10.3591C13.9432 11.1419 13.5732 11.8708 13.0588 12.4935C12.5444 13.1161 11.8984 13.617 11.1672 13.96C10.436 14.3031 9.63791 14.4798 8.83026 14.4775H8.82944Z" fill="white"/>
</g>
<defs>
<clipPath id="clip0_17_899">
<rect width="26" height="26" fill="white"/>
</clipPath>
</defs>
</svg>
