<svg width="60" height="60" viewBox="0 0 60 60" fill="none" xmlns="http://www.w3.org/2000/svg">
<g id="Layer_1" clip-path="url(#clip0_12_720)">
<g id="Group">
<g id="Group_2">
<path id="Vector" d="M55.5776 33.656L52.6908 26.2888C52.1173 24.825 51.7331 23.2941 51.5427 21.7335C50.2184 10.8811 40.9161 2.49247 29.6784 2.61212C17.7186 2.73938 8.04164 12.5984 8.12684 24.5586C8.17793 31.7378 11.7028 38.089 17.1027 42.0213C18.1092 42.7542 18.6936 43.9335 18.6936 45.1785V58.7927C18.6936 59.4595 19.2341 60 19.9009 60H42.5857C43.2525 60 43.793 59.4595 43.793 58.7927V48.4972L50.1415 47.9213C51.6893 47.7809 52.804 46.3726 52.5854 44.834L51.4357 36.7423L54.8859 35.2928C55.5225 35.0254 55.8294 34.2989 55.5776 33.656Z" fill="#8DCAFC"/>
<g id="Group_3">
<path id="Vector_2" d="M34.3936 34.5338C35.0788 34.5338 35.6344 33.9788 35.6347 33.2936C35.6372 27.761 35.6391 5.60461 35.6391 5.60461C35.6391 4.91825 35.0843 4.36348 34.3979 4.36348H21.369C13.5441 7.72313 8.06215 15.5432 8.12672 24.5583C8.15204 28.1583 9.05309 31.5502 10.6252 34.5336L34.3936 34.5338Z" fill="#57A4FF"/>
<g id="Group_4">
<path id="Vector_3" d="M43.7928 48.4972H40.0008C39.363 48.4972 38.846 49.0143 38.846 49.652V60H42.5856C43.2524 60 43.7928 59.4595 43.7928 58.7927V48.4972Z" fill="#57A4FF"/>
<path id="Vector_4" d="M54.8861 35.2927L51.4358 36.7418L52.5859 44.834C52.8041 46.3732 51.6899 47.7808 50.1414 47.9216L46.7003 48.2333C47.6298 47.6859 48.1934 46.6144 48.0305 45.4712L46.9884 38.1387C46.9146 37.619 47.2005 37.1149 47.6845 36.9116L50.3654 35.7856C51.0121 35.5141 51.3238 34.7775 51.0687 34.124L48.138 26.6461C47.5504 25.1473 47.1657 23.5792 46.9671 21.9823C45.7143 11.8693 37.6359 3.87294 27.4848 2.74712C28.307 2.6536 29.143 2.6086 29.9905 2.61083C41.0746 2.64891 50.2084 10.9617 51.5374 21.6936C51.7325 23.2675 52.1125 24.8125 52.691 26.2882L55.5778 33.6564C55.8294 34.2984 55.5223 35.0259 54.8861 35.2927Z" fill="#57A4FF"/>
</g>
</g>
</g>
<g id="Group_5">
<g id="Group_6">
<path id="Vector_5" d="M34.3689 48.4062C41.4036 48.4062 47.1064 42.7034 47.1064 35.6686C47.1064 28.6338 41.4036 22.931 34.3689 22.931C27.3341 22.931 21.6313 28.6338 21.6313 35.6686C21.6313 42.7034 27.3341 48.4062 34.3689 48.4062Z" fill="#FC9744"/>
<path id="Vector_6" d="M35.6365 22.9948C35.6365 27.3584 35.6365 31.3509 35.6352 33.2932C35.6339 33.9783 35.0791 34.5343 34.3941 34.5343H21.6818C22.2552 28.0311 27.7159 22.9315 34.3693 22.9315C34.7975 22.9315 35.2195 22.9526 35.6365 22.9948Z" fill="#FB8627"/>
<path id="Vector_7" d="M47.107 35.6681C47.107 42.7038 41.4035 48.4063 34.3689 48.4063C31.3355 48.4063 28.5481 47.345 26.3607 45.5744C27.718 46.0686 29.1846 46.3373 30.7127 46.3373C37.7474 46.3373 43.4509 40.635 43.4509 33.5992C43.4509 29.5979 41.6063 26.0283 38.721 23.694C43.6125 25.4726 47.107 30.1616 47.107 35.6681Z" fill="#FB8627"/>
<g id="Group_7">
<g id="Group_8">
<path id="Vector_8" d="M39.3819 39.911C38.9284 39.1753 38.5752 38.3164 38.3241 37.3378C36.1784 40.2124 34.0535 41.7113 32.0044 41.7946C30.6909 41.8477 28.7927 41.3434 27.1891 38.6371C25.989 36.6117 26.0995 33.9853 27.4775 31.7832C28.7626 29.7295 30.8946 28.4363 33.3922 28.1277C34.4412 27.9981 35.3453 28.8638 35.2582 29.917C35.1935 30.7 34.5914 31.3364 33.8115 31.4307C32.6695 31.5688 31.2264 32.0627 30.2971 33.5477C29.5927 34.6733 29.4959 36.0055 30.0506 36.9416C30.6661 37.9802 31.2768 38.4974 31.8684 38.4714C33.7908 38.3944 36.7245 34.1906 38.1019 31.3739C38.4571 30.6475 39.2835 30.2816 40.0601 30.507C40.8366 30.7325 41.3386 31.4836 41.2492 32.2873C41.1246 33.448 41.1176 36.4062 42.222 38.1782C42.5877 38.765 42.5311 39.5216 42.103 40.0647C41.3884 40.971 39.9877 40.8938 39.3819 39.911Z" fill="#FEE265"/>
</g>
<path id="Vector_9" d="M35.258 29.9175C35.1934 30.7043 34.584 31.3361 33.7997 31.4316C32.6591 31.5718 31.2232 32.0683 30.2973 33.5476C30.0988 33.8641 29.9486 34.1979 29.8468 34.5342H26.4414C26.5854 33.5923 26.9329 32.654 27.4777 31.7828C28.761 29.7313 30.8906 28.4393 33.3852 28.129C34.4364 27.9975 35.3461 28.8613 35.258 29.9175Z" fill="#F8C52D"/>
</g>
</g>
<path id="Vector_10" d="M34.3985 31.3053H5.57554C4.89011 31.3053 4.33441 30.7496 4.33441 30.0642V1.24136C4.33441 0.555932 4.89011 0.000228882 5.57554 0.000228882H34.3985C35.0839 0.000228882 35.6396 0.555932 35.6396 1.24136V30.0643C35.6395 30.7498 35.0839 31.3053 34.3985 31.3053Z" fill="#F2EFF2"/>
<path id="Vector_11" d="M35.6389 1.24113V30.064C35.6389 30.7504 35.0842 31.3051 34.3978 31.3051H30.1881C30.8732 31.3051 31.4292 30.7504 31.4292 30.064V1.24113C31.4292 0.556055 30.8733 0 30.1882 0H34.3979C35.0843 0 35.6389 0.556055 35.6389 1.24113Z" fill="#E1DDE1"/>
<g id="Group_9">
<path id="Vector_12" d="M29.1504 24.2344L22.0164 5.52329C21.6954 4.68141 20.888 4.12512 19.987 4.12512C19.0861 4.12512 18.2786 4.68141 17.9577 5.52329L10.8237 24.2344C10.3963 25.3552 10.9584 26.6101 12.0793 27.0375C13.1998 27.4649 14.455 26.9029 14.8825 25.7818L16.6231 21.2168H23.3513L25.0918 25.7818C25.4221 26.6481 26.2466 27.1806 27.1215 27.1806C27.3788 27.1806 27.6404 27.1345 27.8948 27.0375C29.0156 26.6101 29.5778 25.355 29.1504 24.2344ZM18.279 16.873L19.9869 12.3935L21.6948 16.873H18.279Z" fill="#FC9744"/>
</g>
</g>
</g>
</g>
<defs>
<clipPath id="clip0_12_720">
<rect width="60" height="60" fill="white"/>
</clipPath>
</defs>
</svg>
