<svg width="60" height="60" viewBox="0 0 60 60" fill="none" xmlns="http://www.w3.org/2000/svg">
<path d="M8.12859 18.5829C10.7714 18.5829 12.9214 16.4329 12.9214 13.7914C12.9214 11.15 10.77 9 8.12859 9C5.48716 9 3.33716 11.1486 3.33716 13.79C3.33716 16.4314 5.48573 18.5829 8.12859 18.5829ZM8.12859 10.4271C9.9843 10.4271 11.4929 11.9371 11.4929 13.79C11.4929 15.6429 9.98287 17.1529 8.12859 17.1529C6.27573 17.1529 4.76573 15.6429 4.76573 13.79C4.76573 11.9371 6.27573 10.4271 8.12859 10.4271Z" fill="#51ABD3"/>
<path d="M48.3186 14.2057H20.07C18.85 14.2057 17.86 15.1971 17.86 16.4171V17.1771C17.86 17.5714 18.1786 17.8914 18.5743 17.8914C18.9671 17.8914 19.2886 17.5714 19.2886 17.1771V16.4171C19.2886 15.9857 19.64 15.6343 20.07 15.6343H48.3171C48.75 15.6343 49.1014 15.9857 49.1014 16.4171V35.6843C49.1014 36.1157 48.75 36.4671 48.3171 36.4671H20.07C19.64 36.4671 19.2886 36.1157 19.2886 35.6843V25.8143C19.2886 25.42 18.9671 25.1 18.5743 25.1C18.1786 25.1 17.86 25.42 17.86 25.8143V35.6843C17.86 36.6071 18.4257 37.3971 19.2328 37.7286V39.9157C19.2328 40.31 19.5514 40.63 19.9471 40.63H24.73L22.3757 49.2214C22.27 49.6014 22.4957 49.9943 22.8757 50.0986C22.94 50.1157 23.0014 50.1243 23.0657 50.1243C23.3786 50.1243 23.6657 49.9157 23.7543 49.5986L26.2157 40.6314H42.1786L44.6371 49.5986C44.7271 49.9172 45.0143 50.1243 45.3257 50.1243C45.39 50.1243 45.4514 50.1157 45.5157 50.0986C45.8957 49.9943 46.1214 49.6 46.0157 49.2214L43.6614 40.63H48.4471C48.84 40.63 49.1614 40.31 49.1614 39.9157V37.7286C49.9657 37.3986 50.5343 36.6071 50.5343 35.6843V16.4171C50.5314 15.1986 49.5371 14.2057 48.3186 14.2057ZM47.73 39.2029H20.6614V37.8971H47.7286L47.73 39.2029Z" fill="#51ABD3"/>
<path d="M24.3786 21.4971C24.3786 20.3157 23.4186 19.3543 22.2357 19.3543L3.57143 19.3529C1.60143 19.3529 0 20.9543 0 22.9243V34.1143C0 35.2957 0.962858 36.2571 2.14286 36.2571C2.39429 36.2571 2.63714 36.2143 2.86 36.1343V47.5786C2.86 48.9814 4.00143 50.1243 5.40429 50.1243C6.80714 50.1243 7.94857 48.9814 7.94857 47.5786V37.6857H8.30857V47.5786C8.30857 48.9814 9.45 50.1243 10.85 50.1243C12.2529 50.1243 13.3943 48.9814 13.3943 47.5786V23.64H22.2343C23.4186 23.64 24.3786 22.6786 24.3786 21.4971ZM12.6814 22.2114C12.2886 22.2114 11.9671 22.5314 11.9671 22.9257V47.5786C11.9671 48.1957 11.4671 48.6957 10.8514 48.6957C10.2371 48.6957 9.73857 48.1943 9.73857 47.5786V36.9714C9.73857 36.5771 9.41714 36.2571 9.02429 36.2571H7.23571C6.84 36.2571 6.52143 36.5771 6.52143 36.9714V47.5786C6.52143 48.1957 6.01857 48.6957 5.40571 48.6957C4.78857 48.6957 4.29 48.1943 4.29 47.5786V24.5914C4.29 24.1971 3.96857 23.8771 3.57571 23.8771C3.18 23.8771 2.86143 24.1971 2.86143 24.5914L2.85857 34.1143C2.85857 34.5071 2.53714 34.8286 2.14429 34.8286C1.75143 34.8286 1.43 34.5071 1.43 34.1143V22.9243C1.43 21.7429 2.39286 20.7814 3.57286 20.7814L22.2357 20.7829C22.6286 20.7829 22.95 21.1043 22.95 21.4971C22.95 21.89 22.6286 22.2114 22.2357 22.2114H12.6814Z" fill="#51ABD3"/>
<path d="M28.2871 25.8714C27.5371 23.7186 24.7914 23.9943 23.2814 24.4929C22.9071 24.6186 22.7043 25.0229 22.83 25.3971C22.9557 25.7714 23.36 25.9743 23.7343 25.8486C23.76 25.8371 26.4629 24.9829 26.94 26.3443C26.9843 26.4729 27.0186 26.6371 27.0457 26.8129C26.13 26.6043 24.7829 26.4971 23.5043 27.1829C22.8014 27.5586 22.3914 28.2286 22.4071 28.9757C22.4271 29.7714 22.9171 30.4943 23.6929 30.8629C23.9329 30.9786 24.3514 31.1229 24.9286 31.1229C25.5029 31.1229 26.2457 30.9614 27.1157 30.5C27.16 30.8529 27.4471 31.1286 27.8129 31.1286C28.2057 31.1286 28.5271 30.8086 28.5271 30.4143C28.5271 30.2286 28.5329 29.9871 28.5414 29.71C28.5471 29.5843 28.5471 29.4386 28.5529 29.3043C28.5614 29.2557 28.5586 29.2071 28.5557 29.1557C28.5857 28.03 28.58 26.7057 28.2871 25.8714ZM24.3086 29.5743C23.9686 29.4114 23.8429 29.1414 23.8371 28.9443C23.8343 28.7371 23.9514 28.5643 24.1771 28.4429C24.68 28.1743 25.2157 28.0843 25.7086 28.0843C26.3 28.0843 26.8029 28.21 27.14 28.3171C27.14 28.4814 27.14 28.6443 27.1371 28.8029C26.0186 29.59 24.9729 29.8929 24.3086 29.5743Z" fill="#51ABD3"/>
<path d="M31.8257 20.9714C31.43 20.9714 31.1114 21.2914 31.1114 21.6857V30.4157C31.1114 30.81 31.43 31.13 31.8257 31.13C32.2186 31.13 32.54 30.81 32.54 30.4157V30.2757C33.1286 30.6314 33.7514 30.8314 34.41 30.8314C34.7228 30.8314 35.0428 30.7914 35.37 30.71C36.65 30.3986 37.5657 29.3343 37.7586 27.9372C37.9571 26.49 37.3143 25.1214 36.1214 24.45C34.7486 23.6772 33.4514 24.2229 32.5414 24.8943V21.6871C32.54 21.29 32.2186 20.9714 31.8257 20.9714ZM35.4186 25.6929C36.2443 26.1586 36.4314 27.0871 36.3414 27.7414C36.2543 28.3714 35.8643 29.12 35.03 29.3229C34.1014 29.5443 33.3057 29.2543 32.5386 28.4457V26.8329C32.9471 26.36 34.2357 25.0343 35.4186 25.6929Z" fill="#51ABD3"/>
<path d="M44.7472 26.1329C45.0157 26.42 45.47 26.4343 45.7543 26.1643C46.0414 25.8957 46.0586 25.4429 45.7872 25.1557C44.9886 24.2971 42.9414 23.13 40.9186 24.8643C39.8443 25.7814 39.46 27.2957 39.9357 28.7243C40.3714 30.0286 41.4229 30.8871 42.6786 30.9629C42.8043 30.9714 42.9272 30.9743 43.0472 30.9743C44.5043 30.9743 45.2286 30.4057 45.8429 29.5571C46.0743 29.2371 46.0043 28.7914 45.6872 28.56C45.3686 28.33 44.92 28.3971 44.6886 28.7171C44.2843 29.2743 43.9629 29.5929 42.7629 29.5371C42.0929 29.4957 41.5429 29.0229 41.2929 28.27C41.07 27.6071 41.0814 26.6014 41.8486 25.9486C43.3043 24.7057 44.6014 25.9843 44.7472 26.1329Z" fill="#51ABD3"/>
</svg>
